<svg width="32" height="32" viewBox="0 0 32 32" fill="none" xmlns="http://www.w3.org/2000/svg">
<rect width="32" height="32" fill="black"/>
<path d="M13.453 14.7773C13.453 14.2207 13.3927 13.78 13.2721 13.4553C13.1515 13.1306 12.952 12.8848 12.6737 12.7178C12.3954 12.5508 12.0289 12.4441 11.5743 12.3977C11.1198 12.3513 10.5585 12.3281 9.8905 12.3281H6.31409C5.72034 12.3281 5.21936 12.3467 4.81116 12.3838C4.40759 12.4163 4.07361 12.4858 3.8092 12.5925C3.5448 12.6992 3.3407 12.8523 3.1969 13.0518C3.0531 13.2512 2.94873 13.5156 2.88379 13.845C2.81885 14.1743 2.78174 14.5802 2.77246 15.0626C2.76318 15.5404 2.75854 16.1133 2.75854 16.7812C2.75854 17.4492 2.76318 18.0244 2.77246 18.5068C2.78638 18.9846 2.82581 19.3882 2.89075 19.7175C2.95569 20.0469 3.05774 20.3113 3.1969 20.5107C3.3407 20.7102 3.5448 20.8633 3.8092 20.97C4.07361 21.0767 4.40759 21.1486 4.81116 21.1857C5.21936 21.2181 5.72034 21.2344 6.31409 21.2344H9.89746C10.417 21.2344 10.8646 21.2205 11.2404 21.1926C11.6161 21.1648 11.9362 21.1138 12.2006 21.0396C12.465 20.9653 12.6783 20.8633 12.8407 20.7334C13.0031 20.6035 13.1283 20.4412 13.2164 20.2463C13.3092 20.0469 13.3718 19.8103 13.4043 19.5366C13.4368 19.2583 13.453 18.9336 13.453 18.5625V17.8945H8.09534V16.7812H14.7889V18.5625C14.7889 19.0078 14.7611 19.4114 14.7054 19.7732C14.6498 20.1304 14.55 20.4504 14.4062 20.7334C14.2671 21.0117 14.0792 21.2529 13.8427 21.457C13.6061 21.6611 13.3069 21.8304 12.9451 21.965C12.5833 22.0948 12.1519 22.1899 11.6509 22.2502C11.1499 22.3152 10.5654 22.3477 9.89746 22.3477H6.31409C5.49768 22.3477 4.80884 22.2966 4.24756 22.1946C3.69092 22.0972 3.23169 21.9487 2.86987 21.7493C2.50806 21.5452 2.22742 21.29 2.02795 20.9839C1.83313 20.6777 1.68933 20.3182 1.59656 19.9054C1.50842 19.4926 1.4574 19.0264 1.44348 18.5068C1.42957 17.9873 1.42261 17.4121 1.42261 16.7812C1.42261 16.1504 1.42957 15.5752 1.44348 15.0557C1.4574 14.5361 1.50842 14.0699 1.59656 13.6571C1.68933 13.2443 1.83313 12.8848 2.02795 12.5786C2.22742 12.2725 2.50806 12.0197 2.86987 11.8202C3.23169 11.6161 3.69092 11.4653 4.24756 11.3679C4.80884 11.2659 5.49768 11.2148 6.31409 11.2148H9.8905C10.5585 11.2148 11.1429 11.2473 11.6439 11.3123C12.1449 11.3726 12.5763 11.4677 12.9381 11.5975C13.2999 11.7228 13.5991 11.8828 13.8357 12.0776C14.0769 12.2725 14.2671 12.5021 14.4062 12.7665C14.55 13.0309 14.6498 13.3301 14.7054 13.6641C14.7611 13.998 14.7889 14.3691 14.7889 14.7773H13.453ZM18.3584 22.125H17.0225V11.4375H19.3673L29.1642 20.7891V11.4375H30.5001V22.125H28.7189L18.3584 12.5508V22.125Z" fill="white"/>
</svg>
