<svg width="278" height="108" viewBox="0 0 278 108" fill="none" xmlns="http://www.w3.org/2000/svg">
<circle cx="50" cy="58" r="50" fill="#3333FF"/>
<path d="M23.392 36.352C26.4213 36.352 29.0667 37.0133 31.328 38.336C33.632 39.6587 35.3387 41.3227 36.448 43.328V36.928H42.336V72.768C42.336 75.968 41.6533 78.8053 40.288 81.28C38.9227 83.7973 36.96 85.76 34.4 87.168C31.8827 88.576 28.9387 89.28 25.568 89.28C20.96 89.28 17.12 88.192 14.048 86.016C10.976 83.84 9.16267 80.8747 8.608 77.12H14.368C15.008 79.2533 16.3307 80.96 18.336 82.24C20.3413 83.5627 22.752 84.224 25.568 84.224C28.768 84.224 31.3707 83.2213 33.376 81.216C35.424 79.2107 36.448 76.3947 36.448 72.768V65.408C35.296 67.456 33.5893 69.1627 31.328 70.528C29.0667 71.8933 26.4213 72.576 23.392 72.576C20.2773 72.576 17.44 71.808 14.88 70.272C12.3627 68.736 10.3787 66.5813 8.928 63.808C7.47733 61.0347 6.752 57.8773 6.752 54.336C6.752 50.752 7.47733 47.616 8.928 44.928C10.3787 42.1973 12.3627 40.0853 14.88 38.592C17.44 37.0987 20.2773 36.352 23.392 36.352ZM36.448 54.4C36.448 51.7547 35.9147 49.4507 34.848 47.488C33.7813 45.5253 32.3307 44.032 30.496 43.008C28.704 41.9413 26.72 41.408 24.544 41.408C22.368 41.408 20.384 41.92 18.592 42.944C16.8 43.968 15.3707 45.4613 14.304 47.424C13.2373 49.3867 12.704 51.6907 12.704 54.336C12.704 57.024 13.2373 59.3707 14.304 61.376C15.3707 63.3387 16.8 64.8533 18.592 65.92C20.384 66.944 22.368 67.456 24.544 67.456C26.72 67.456 28.704 66.944 30.496 65.92C32.3307 64.8533 33.7813 63.3387 34.848 61.376C35.9147 59.3707 36.448 57.0453 36.448 54.4ZM67.474 72.576C64.1887 72.576 61.202 71.8293 58.514 70.336C55.8687 68.8427 53.778 66.7307 52.242 64C50.7487 61.2267 50.002 58.0267 50.002 54.4C50.002 50.816 50.77 47.6587 52.306 44.928C53.8847 42.1547 56.018 40.0427 58.706 38.592C61.394 37.0987 64.402 36.352 67.73 36.352C71.058 36.352 74.066 37.0987 76.754 38.592C79.442 40.0427 81.554 42.1333 83.09 44.864C84.6687 47.5947 85.458 50.7733 85.458 54.4C85.458 58.0267 84.6473 61.2267 83.026 64C81.4473 66.7307 79.2927 68.8427 76.562 70.336C73.8313 71.8293 70.802 72.576 67.474 72.576ZM67.474 67.456C69.5647 67.456 71.5273 66.9653 73.362 65.984C75.1967 65.0027 76.6687 63.5307 77.778 61.568C78.93 59.6053 79.506 57.216 79.506 54.4C79.506 51.584 78.9513 49.1947 77.842 47.232C76.7327 45.2693 75.282 43.8187 73.49 42.88C71.698 41.8987 69.7567 41.408 67.666 41.408C65.5327 41.408 63.57 41.8987 61.778 42.88C60.0287 43.8187 58.6207 45.2693 57.554 47.232C56.4873 49.1947 55.954 51.584 55.954 54.4C55.954 57.2587 56.466 59.6693 57.49 61.632C58.5567 63.5947 59.9647 65.0667 61.714 66.048C63.4633 66.9867 65.3833 67.456 67.474 67.456ZM90.9395 54.336C90.9395 50.752 91.6648 47.616 93.1155 44.928C94.5662 42.1973 96.5502 40.0853 99.0675 38.592C101.628 37.0987 104.486 36.352 107.644 36.352C110.374 36.352 112.913 36.992 115.26 38.272C117.606 39.5093 119.398 41.152 120.636 43.2V24.64H126.524V72H120.636V65.408C119.484 67.4987 117.777 69.2267 115.516 70.592C113.254 71.9147 110.609 72.576 107.58 72.576C104.465 72.576 101.628 71.808 99.0675 70.272C96.5502 68.736 94.5662 66.5813 93.1155 63.808C91.6648 61.0347 90.9395 57.8773 90.9395 54.336ZM120.636 54.4C120.636 51.7547 120.102 49.4507 119.036 47.488C117.969 45.5253 116.518 44.032 114.684 43.008C112.892 41.9413 110.908 41.408 108.732 41.408C106.556 41.408 104.572 41.92 102.78 42.944C100.988 43.968 99.5582 45.4613 98.4915 47.424C97.4248 49.3867 96.8915 51.6907 96.8915 54.336C96.8915 57.024 97.4248 59.3707 98.4915 61.376C99.5582 63.3387 100.988 64.8533 102.78 65.92C104.572 66.944 106.556 67.456 108.732 67.456C110.908 67.456 112.892 66.944 114.684 65.92C116.518 64.8533 117.969 63.3387 119.036 61.376C120.102 59.3707 120.636 57.0453 120.636 54.4ZM148.782 72.576C146.094 72.576 143.683 72.128 141.55 71.232C139.416 70.2933 137.731 69.0133 136.494 67.392C135.256 65.728 134.574 63.8293 134.446 61.696H140.462C140.632 63.4453 141.443 64.8747 142.894 65.984C144.387 67.0933 146.328 67.648 148.718 67.648C150.936 67.648 152.686 67.1573 153.966 66.176C155.246 65.1947 155.886 63.9573 155.886 62.464C155.886 60.928 155.203 59.7973 153.838 59.072C152.472 58.304 150.36 57.5573 147.502 56.832C144.899 56.1493 142.766 55.4667 141.102 54.784C139.48 54.0587 138.072 53.0133 136.878 51.648C135.726 50.24 135.15 48.4053 135.15 46.144C135.15 44.352 135.683 42.7093 136.75 41.216C137.816 39.7227 139.331 38.5493 141.294 37.696C143.256 36.8 145.496 36.352 148.014 36.352C151.896 36.352 155.032 37.3333 157.422 39.296C159.811 41.2587 161.091 43.9467 161.262 47.36H155.438C155.31 45.5253 154.563 44.0533 153.198 42.944C151.875 41.8347 150.083 41.28 147.822 41.28C145.731 41.28 144.067 41.728 142.83 42.624C141.592 43.52 140.974 44.6933 140.974 46.144C140.974 47.296 141.336 48.256 142.062 49.024C142.83 49.7493 143.768 50.3467 144.878 50.816C146.03 51.2427 147.608 51.7333 149.614 52.288C152.131 52.9707 154.179 53.6533 155.758 54.336C157.336 54.976 158.68 55.9573 159.79 57.28C160.942 58.6027 161.539 60.3307 161.582 62.464C161.582 64.384 161.048 66.112 159.982 67.648C158.915 69.184 157.4 70.4 155.438 71.296C153.518 72.1493 151.299 72.576 148.782 72.576ZM216.523 36.928L205.579 72H199.563L191.115 44.16L182.667 72H176.651L165.643 36.928H171.595L179.659 66.368L188.363 36.928H194.315L202.827 66.432L210.763 36.928H216.523ZM225.311 31.232C224.202 31.232 223.263 30.848 222.495 30.08C221.727 29.312 221.343 28.3733 221.343 27.264C221.343 26.1547 221.727 25.216 222.495 24.448C223.263 23.68 224.202 23.296 225.311 23.296C226.378 23.296 227.274 23.68 227.999 24.448C228.767 25.216 229.151 26.1547 229.151 27.264C229.151 28.3733 228.767 29.312 227.999 30.08C227.274 30.848 226.378 31.232 225.311 31.232ZM228.127 36.928V72H222.303V36.928H228.127ZM243.877 24.64V72H238.053V24.64H243.877ZM259.627 24.64V72H253.803V24.64H259.627Z" fill="white"/>
<ellipse cx="67.5" cy="55" rx="7.5" ry="11" fill="white"/>
</svg>
